<svg width="30" height="30" viewBox="0 0 1024 1024" class="icon" xmlns="http://www.w3.org/2000/svg"><path d="m90.596 591.483 597.48-454.39S933.475 275.668 933.475 462.01z" fill="#EACC53"/><path d="M90.596 591.483v350.459l842.879-129.544V461.94z" fill="#F5AD1A"/><path d="M90.596 791.584v97.299L933.475 759.41v-97.37zm378.046-522.69s-33.797 127.427 179.57 98.216c78.318-12.277 225.642-16.863 202.64-98.216-12.277-29.14-37.395-53.13-43.746-55.458 6.35-12.065 24.766-45.51-17.85-64.49-24.202-8.043-48.897-11.5-63.926-14.393-15.522-6.915-31.68-30.48-12.63-51.79-21.308-3.456-85.162 2.894-122.628 70.206-12.63-1.13-51.225-2.329-61.032 21.872-7.48 21.309-2.893 37.96 2.892 48.332-19.544 3.599-54.047 21.167-63.29 45.721" fill="#F5ECDA"/><path d="M599.597 236.509a67.453 67.453 0 1 0 134.906 0 67.453 67.453 0 1 0-134.906 0" fill="#5B2B20"/><path d="M221.48 519.162a17.851 17.851 0 1 0 35.702 0 17.851 17.851 0 1 0-35.702 0m46.921-39.372a17.851 17.851 0 1 0 35.702 0 17.851 17.851 0 1 0-35.703 0m207.934 3.67a17.851 17.851 0 1 0 35.701 0 17.851 17.851 0 1 0-35.702 0" fill="#774621"/></svg>